<svg xmlns="http://www.w3.org/2000/svg" viewBox="0 0 64 64" width="64" height="64">

  <!-- Face backgrounds (black plastic body) -->
  <polygon points="32,4 56,16 32,28 8,16"  fill="#18181b"/>
  <polygon points="8,16 32,28 32,58 8,46"  fill="#18181b"/>
  <polygon points="32,28 56,16 56,46 32,58" fill="#18181b"/>

  <!-- TOP FACE stickers (yellow face, scrambled) -->
  <polygon points="32,4.7 38.6,8 32,11.3 25.4,8"    fill="#fbbf24"/>
  <polygon points="40,8.7 46.6,12 40,15.3 33.4,12"   fill="#fbbf24"/>
  <polygon points="48,12.7 54.6,16 48,19.3 41.4,16"  fill="#fbbf24"/>

  <polygon points="24,8.7 30.6,12 24,15.3 17.4,12"   fill="#f8fafc"/>
  <polygon points="32,12.7 38.6,16 32,19.3 25.4,16"  fill="#fbbf24"/>
  <polygon points="40,16.7 46.6,20 40,23.3 33.4,20"  fill="#f97316"/>

  <polygon points="16,12.7 22.6,16 16,19.3 9.4,16"   fill="#fbbf24"/>
  <polygon points="24,16.7 30.6,20 24,23.3 17.4,20"  fill="#22c55e"/>
  <polygon points="32,20.7 38.6,24 32,27.3 25.4,24"  fill="#fbbf24"/>

  <!-- LEFT FACE stickers (blue face, scrambled) -->
  <polygon points="8.7,17.3 15.3,20.5 15.3,28.7 8.7,25.5"    fill="#3b82f6"/>
  <polygon points="16.7,21.3 23.3,24.5 23.3,32.7 16.7,29.5"  fill="#f97316"/>
  <polygon points="24.7,25.3 31.3,28.5 31.3,36.7 24.7,33.5"  fill="#3b82f6"/>

  <polygon points="8.7,27.3 15.3,30.5 15.3,38.7 8.7,35.5"    fill="#3b82f6"/>
  <polygon points="16.7,31.3 23.3,34.5 23.3,42.7 16.7,39.5"  fill="#3b82f6"/>
  <polygon points="24.7,35.3 31.3,38.5 31.3,46.7 24.7,43.5"  fill="#ef4444"/>

  <polygon points="8.7,37.3 15.3,40.5 15.3,48.7 8.7,45.5"    fill="#3b82f6"/>
  <polygon points="16.7,41.3 23.3,44.5 23.3,52.7 16.7,49.5"  fill="#3b82f6"/>
  <polygon points="24.7,45.3 31.3,48.5 31.3,56.7 24.7,53.5"  fill="#22c55e"/>

  <!-- RIGHT FACE stickers (red face, scrambled) -->
  <polygon points="55.3,17.3 48.7,20.5 48.7,28.7 55.3,25.5"  fill="#ef4444"/>
  <polygon points="47.3,21.3 40.7,24.5 40.7,32.7 47.3,29.5"  fill="#ef4444"/>
  <polygon points="39.3,25.3 32.7,28.5 32.7,36.7 39.3,33.5"  fill="#f8fafc"/>

  <polygon points="55.3,27.3 48.7,30.5 48.7,38.7 55.3,35.5"  fill="#22c55e"/>
  <polygon points="47.3,31.3 40.7,34.5 40.7,42.7 47.3,39.5"  fill="#ef4444"/>
  <polygon points="39.3,35.3 32.7,38.5 32.7,46.7 39.3,43.5"  fill="#ef4444"/>

  <polygon points="55.3,37.3 48.7,40.5 48.7,48.7 55.3,45.5"  fill="#ef4444"/>
  <polygon points="47.3,41.3 40.7,44.5 40.7,52.7 47.3,49.5"  fill="#f97316"/>
  <polygon points="39.3,45.3 32.7,48.5 32.7,56.7 39.3,53.5"  fill="#ef4444"/>

  <!-- Cube outline -->
  <polyline points="32,4 8,16 8,46 32,58 56,46 56,16 32,4"
            fill="none" stroke="#09090b" stroke-width="1.5"
            stroke-linejoin="round" stroke-linecap="round"/>
  <line x1="8"  y1="16" x2="32" y2="28" stroke="#09090b" stroke-width="1.5" stroke-linecap="round"/>
  <line x1="56" y1="16" x2="32" y2="28" stroke="#09090b" stroke-width="1.5" stroke-linecap="round"/>
  <line x1="32" y1="28" x2="32" y2="58" stroke="#09090b" stroke-width="1.5" stroke-linecap="round"/>

</svg>
